<?xml version="1.0" encoding="iso-8859-1"?>
<!-- Generator: Adobe Illustrator 19.0.0, SVG Export Plug-In . SVG Version: 6.00 Build 0)  -->
<svg version="1.1" id="Capa_1" xmlns="http://www.w3.org/2000/svg" xmlns:xlink="http://www.w3.org/1999/xlink" x="0px" y="0px"
	 viewBox="0 0 512 512" style="enable-background:new 0 0 512 512;" xml:space="preserve">
<path style="fill:#736EFF;" d="M403.794,474.82l-302.441,0.456V363.12c0-32.504,19.168-61.066,46.961-69.977l129.508-41.522
	l129.508,41.522c27.793,8.911,46.961,37.473,46.961,69.977v61.128C454.29,452.149,431.694,474.778,403.794,474.82z"/>
<path style="fill:#FFC0A6;" d="M358.198,108.042v62.755c0,44.639-36.187,80.825-80.825,80.825l0,0
	c-44.639,0-80.825-36.187-80.825-80.825v-62.755L239.4,81.164L358.198,108.042z"/>
<g>
	<circle style="fill:#4A4C5F;" cx="242.35" cy="160.47" r="7.983"/>
	<circle style="fill:#4A4C5F;" cx="307.01" cy="160.47" r="7.983"/>
</g>
<path style="fill:#FFA992;" d="M338.457,223.228c-4.687-4.928-11.301-8.004-18.638-8.004h-110.36
	c14.456,21.923,39.287,36.399,67.511,36.399l0,0C301.595,251.622,323.632,240.596,338.457,223.228z"/>
<path style="fill:#4A4C5F;" d="M277.835,223.207c-11.31,0-21.883-5.045-29.008-13.843c-2.775-3.426-2.247-8.453,1.179-11.228
	s8.453-2.247,11.228,1.179c4.079,5.036,10.13,7.925,16.6,7.925c6.508,0,12.581-2.916,16.661-8c2.76-3.438,7.784-3.989,11.223-1.229
	c3.439,2.759,3.989,7.784,1.229,11.223C299.822,218.114,289.21,223.207,277.835,223.207z"/>
<g>
	<path style="fill:#6060D8;" d="M454.29,424.248V363.12c0-26.839-13.077-50.979-33.279-63.599l0,0
		c-15.686,14.097-24.645,34.195-24.645,55.285v17.787v47.086h-50.419v54.532h65.625C435.775,470.438,454.29,449.503,454.29,424.248z
		"/>
	<path style="fill:#6060D8;" d="M277.308,251.622l-126.229,40.471c87.303,16.941,153.954,91.726,158.438,182.869l54.878-0.083
		c0.126-1.105,0.198-2.228,0.198-3.367V279.607L277.308,251.622z"/>
</g>
<path style="fill:#5757C1;" d="M364.593,471.512V419.68h-18.647v54.532h18.507C364.536,473.322,364.593,472.424,364.593,471.512z"/>
<path style="fill:#4A4C5F;" d="M488.639,500.823H316.635l29.311-26.611H512v3.251C512,490.364,501.541,500.823,488.639,500.823z"/>
<path style="fill:#585A6A;" d="M316.635,500.823H27.289C12.218,500.823,0,488.606,0,473.534V259.372
	c0-14.208,11.518-25.726,25.726-25.726H320.22c14.208,0,25.726,11.518,25.726,25.726v212.14
	C345.946,487.7,332.823,500.823,316.635,500.823z"/>
<path style="fill:#4A4C5F;" d="M320.22,233.647H25.726C11.518,233.647,0,245.164,0,259.372v29.107h94.827
	c108.406,0,196.287,87.881,196.287,196.287v16.057h25.521c16.188,0,29.311-13.123,29.311-29.311v-212.14
	C345.946,245.164,334.428,233.647,320.22,233.647z"/>
<circle style="fill:#FFFFFF;" cx="172.97" cy="367.24" r="25.547"/>
<path style="fill:#4A4C5F;" d="M209.6,58.804c-3.778,6.051-8.849,15.8-11.533,28.737c-2.328,11.219-2.031,20.839-1.305,27.467
	c9.092-2.244,16.188-5.457,21.104-8.098c1.94-1.043,11.53-6.29,21.533-15.981l0,0L209.6,58.804z"/>
<path style="fill:#585A6A;" d="M378.47,102.733c2.345-0.942,3.578-3.514,2.865-5.939c-6.466-21.992-16.768-42.737-32.908-58.349
	c-5.572-5.389-26.509-25.642-57.497-27.243c0,0-32.335-1.67-60.256,22.089c-8.424,7.168-15.359,15.859-21.074,25.513
	c25.988,37.183,64.976,60.828,108.57,60.828c10.735,0,33.166-3.274,43.884-10.308L378.47,102.733z"/>
<g>
	<path style="fill:#FFA992;" d="M369.541,165.787h-11.745v-46.569h11.745c6.239,0,11.297,5.058,11.297,11.297v23.976
		C380.838,160.73,375.78,165.787,369.541,165.787z"/>
	<path style="fill:#FFA992;" d="M184.27,119.218h12.35v46.569h-12.35c-6.239,0-11.297-5.058-11.297-11.297v-23.976
		C172.973,124.276,178.031,119.218,184.27,119.218z"/>
</g>
<g>
</g>
<g>
</g>
<g>
</g>
<g>
</g>
<g>
</g>
<g>
</g>
<g>
</g>
<g>
</g>
<g>
</g>
<g>
</g>
<g>
</g>
<g>
</g>
<g>
</g>
<g>
</g>
<g>
</g>
</svg>
